# xmcd
#
# Track frame offsets:
#	150
#	18778
#	38175
#	62888
#	79060
#	96725
#	113538
#	129720
#	152445
#	167985
#	185150
#	199755
#	205478
#	220043
#
# Disc length: 3074 seconds
# Revision: 0
# Processed by: cddbd v1.5.2PL0 Copyright (c) Steve Scherf et al.
# Submitted via: dBpowerAMP V12.0
#
DISCID=c70c000e
DTITLE=Clouseau - Oker
DYEAR=1995
DGENRE=Nederlandstalig
TTITLE0=Cara Lucia
TTITLE1=Voorbij
TTITLE2=Oker
TTITLE3=Laat Me Nu Toch Niet Alleen
TTITLE4=Keer Op Keer
TTITLE5=Waterdrager
TTITLE6=Zie Me Graag
TTITLE7=Passie
TTITLE8=1 Miljoen Vlinders
TTITLE9=Hoog in de Heldere Lucht
TTITLE10=1 Grote Liefde
TTITLE11=Brommer
TTITLE12=Swentibold
TTITLE13=Zij Houdt Van Vrijen
EXTD=
EXTT0=
EXTT1=
EXTT2=
EXTT3=
EXTT4=
EXTT5=
EXTT6=
EXTT7=
EXTT8=
EXTT9=
EXTT10=
EXTT11=
EXTT12=
EXTT13=
PLAYORDER=
